<svg height="512" viewBox="0 0 256 256" width="512" xmlns="http://www.w3.org/2000/svg"><g id="Layer_3"><g><g><path d="m249.66 96.49-27.75 27.75c-1.8 1.8-4.71 1.81-6.52 0l-9.04-9.04c-2.07-2.07-2.49-5.26-1.02-7.78l4.41-7.66c.62-1.08.44-2.45-.45-3.33l-3.64-3.64c-1.08-1.08-2.83-1.08-3.9 0l-5.65 5.64c-1.8 1.8-4.72 1.8-6.52 0l-2.86-2.85c-3.59-3.6-9.43-3.6-13.03 0l-25.21 25.21-4.95 4.95-18.68-18.68 4.95-4.95 25.21-25.21c3.6-3.6 3.6-9.44 0-13.04l-2.86-2.86c-1.46-1.46-1.76-3.75-.73-5.55l4.8-8.32c5.23-9.09-1.29-20.19-11.44-20.51l-27.88-.87 21-11.12c14.16-7.49 31.55-4.87 42.88 6.46l43.07 43.07c1.8 1.8 1.81 4.71 0 6.52l-5.64 5.64c-1.08 1.08-1.08 2.83 0 3.91l3.64 3.64c.88.89 2.26 1.06 3.34.44l7.65-4.41c2.52-1.46 5.71-1.04 7.78 1.03l9.04 9.04c1.81 1.81 1.81 4.71 0 6.52z" fill="#efefef"/><path d="m133.165 100.716h7v26.418h-7z" fill="#afafaf" transform="matrix(.707 -.707 .707 .707 -40.529 130.006)"/><path d="m41.464 239.067c-8.214 8.583-21.877 8.737-30.275.338-8.406-8.406-8.253-22.069.338-30.275l107.817-103.077c1.281-1.224 3.305-1.202 4.558.051l20.588 20.588c1.253 1.253 1.276 3.277.051 4.558z" fill="#72c2e9"/></g></g><g><path d="m192.772 143.026c-3.729-1.228-6.641-2.022-8.591-10.421-.635-2.737-4.548-2.73-5.181 0-1.907 8.213-4.566 9.092-8.591 10.422-2.424.801-2.43 4.248 0 5.051 6.686 2.209 7.444 5.476 8.591 10.421.637 2.743 4.545 2.742 5.182 0 1.905-8.212 4.709-9.139 8.591-10.421 2.423-.802 2.428-4.25-.001-5.052z"/><path d="m185.582 145.576c-1.48 1.03-2.8 2.42-3.94 4.44-.94-1.59-2.25-3.09-4.16-4.4 1.55-1.07 2.93-2.51 4.12-4.64 1.2 2.16 2.56 3.59 3.98 4.6z" fill="#f0c020"/></g><g><path d="m121.627 71.881c-3.729-1.228-6.641-2.022-8.591-10.421-.635-2.737-4.548-2.73-5.181 0-1.907 8.213-4.566 9.092-8.591 10.422-2.424.801-2.43 4.248 0 5.051 6.686 2.209 7.444 5.476 8.591 10.421.637 2.743 4.545 2.742 5.182 0 1.905-8.212 4.709-9.139 8.591-10.421 2.423-.802 2.429-4.249-.001-5.052z"/><path d="m114.438 74.431c-1.48 1.03-2.8 2.42-3.94 4.44-.94-1.59-2.25-3.09-4.16-4.4 1.55-1.07 2.93-2.51 4.12-4.64 1.2 2.16 2.56 3.59 3.98 4.6z" fill="#f0c020"/></g></g><g id="Layer_4"><g><path d="m212.968 69.919c-.64 0-1.28-.244-1.768-.732l-39.259-39.259c-1.159-1.159-2.433-2.2-3.786-3.094-1.152-.761-1.469-2.312-.708-3.464s2.312-1.469 3.464-.708c1.633 1.079 3.169 2.334 4.565 3.73l39.258 39.259c.977.976.977 2.559 0 3.535-.486.489-1.126.733-1.766.733zm-52.612-46.479c-.167 0-.336-.017-.507-.052-.879-.181-1.784-.314-2.687-.396-1.375-.124-2.389-1.339-2.265-2.714s1.327-2.388 2.714-2.265c1.09.098 2.183.259 3.247.478 1.352.279 2.223 1.601 1.944 2.953-.243 1.182-1.284 1.996-2.446 1.996z" fill="#fff"/></g><g><path d="m26.164 238.109c-3.653 0-7.088-1.423-9.672-4.008-.976-.977-.976-2.56 0-3.536s2.559-.976 3.536 0c1.639 1.64 3.818 2.543 6.136 2.543 2.386 0 4.611-.952 6.266-2.681l89.539-93.655c.954-.999 2.536-1.034 3.535-.08.998.954 1.034 2.537.08 3.535l-89.54 93.656c-2.609 2.726-6.117 4.226-9.88 4.226zm104.521-104.337c-.621 0-1.243-.23-1.727-.693-.998-.954-1.034-2.537-.08-3.535l2.073-2.168c.954-.999 2.536-1.034 3.535-.08.998.954 1.034 2.537.08 3.535l-2.073 2.169c-.492.514-1.149.772-1.808.772z" fill="#c5e5fe"/></g></g><g id="Layer_2"><path d="m203.34 43.65c-.965.964-.981 2.549 0 3.53.954.974 2.551 1.001 3.53 0 1.004-.983.97-2.58 0-3.53-.94-.95-2.59-.95-3.53 0z"/><path d="m242.39 79.16c-2.874-2.874-7.351-3.438-10.8-1.42l-7.65 4.4c-.081.061-.24.057-.31-.03l-3.65-3.65c-.113-.113-.105-.267 0-.37l5.64-5.64c2.78-2.78 2.77-7.29 0-10.06l-11.68-11.67c-.94-.95-2.59-.95-3.53 0-.97.97-.97 2.56 0 3.53l11.67 11.68c.829.809.83 2.171 0 2.98l-5.64 5.64c-2.026 2.026-2.075 5.353 0 7.45l3.64 3.64c1.61 1.62 4.33 1.99 6.35.84l7.66-4.41c1.612-.951 3.543-.587 4.76.63l9.04 9.04c.836.815.836 2.165 0 2.98l-27.75 27.75c-.826.826-2.15.829-2.98 0l-9.04-9.04c-1.235-1.235-1.548-3.15-.63-4.75l4.42-7.67c1.188-2.067.816-4.701-.86-6.36l-3.63-3.63c-2.046-2.046-5.397-2.064-7.45.01l-5.64 5.63c-.828.829-2.151.829-2.98 0l-2.86-2.85c-4.528-4.528-11.948-4.622-16.57 0l-28.385 28.395-15.145-15.145 28.39-28.39c4.563-4.563 4.594-11.986 0-16.58l-2.86-2.86c-.65-.632-.815-1.695-.33-2.53l4.8-8.32c6.166-10.765-1.48-23.841-13.53-24.26l-18.45-.58 12.66-6.7c12.948-6.846 29.167-4.77 39.94 6.02l17.26 17.25c.94.95 2.59.95 3.53 0 .98-.97.98-2.56 0-3.53l-17.25-17.26c-12.031-12.031-30.585-14.953-45.82-6.9l-21 11.12c-2.249 1.191-1.478 4.619 1.09 4.71l27.88.87c8.205.233 13.682 9.298 9.35 16.76l-4.8 8.32c-1.578 2.793-1.149 6.273 1.13 8.57l2.86 2.86c2.63 2.609 2.628 6.892 0 9.5l-28.473 28.473c-2.187-1.443-5.154-1.263-7.157.647l-62.62 59.87c-.992.933-1.057 2.5-.08 3.54.92.96 2.56 1 3.53.08l62.63-59.88c.317-.296.768-.271 1.07.01 0 0 20.343 20.353 20.58 20.59.297.297.292.767.01 1.07l-103.07 107.81c-7.344 7.654-19.367 7.633-26.7.3-7.397-7.396-7.327-19.432.29-26.7l30.73-29.38c1-.96 1.04-2.54.08-3.54-.92-.96-2.56-1-3.53-.08l-30.73 29.38c-9.577 9.134-9.82 24.431-.38 33.85 9.535 9.535 24.794 9.085 33.85-.37l103.08-107.82c1.945-2.058 2.051-5.015.637-7.157l28.473-28.473c2.598-2.619 6.872-2.639 9.49 0l2.87 2.85c2.771 2.772 7.287 2.764 10.05 0l5.65-5.64c.094-.114.272-.105.36 0l3.64 3.64c.096.081.098.223.05.32l-4.41 7.65v.01c-1.909 3.262-1.625 7.728 1.42 10.79l9.04 9.04c2.708 2.708 7.201 2.838 10.06 0l27.75-27.75c2.771-2.771 2.793-7.267 0-10.06z"/><path d="m47.76 171.03c-1 .96-1.03 2.54-.08 3.54.96 1.02 2.561 1.007 3.53.08 1-.96 1.03-2.54.08-3.54-.92-.96-2.57-1-3.53-.08z"/></g></svg>