<svg height="512" viewBox="0 0 256 256" width="512" xmlns="http://www.w3.org/2000/svg"><g id="Layer_3"><g><g><g><path d="m250.657 17.95-40.579 143.214c-2.123 7.493-11.525 9.943-17.038 4.431l-38.251-38.251-5.053-5.053 18.712-18.702c4.4-4.4 4.441-11.597 0-16.037-4.43-4.42-11.607-4.42-16.037 0l-18.702 18.712-5.053-5.053-38.251-38.252c-5.512-5.512-3.063-14.915 4.431-17.038l143.214-40.578c7.687-2.175 14.781 4.921 12.607 12.607z" fill="#efefef"/><path d="m125.386 163.329-32.715-32.715c-1.993-1.993-5.225-1.993-7.218 0l-71.918 71.918c-2.392 2.392-2.392 6.27 0 8.662l31.272 31.272c2.392 2.392 6.27 2.392 8.662 0l71.918-71.918c1.992-1.994 1.992-5.225-.001-7.219z" fill="#f0c020"/><path d="m133.873 150.742-10.535 10.535-28.614-28.614 10.535-10.535c1.991-1.991 5.227-1.991 7.217 0l21.397 21.397c1.99 1.99 1.99 5.226 0 7.217z" fill="#72c2e9"/><path d="m43.477 241.137-5.053 5.053-1.878 1.878c-3.981 3.981-10.443 3.981-14.435 0l-14.18-14.18c-3.981-3.991-3.981-10.453 0-14.435l6.932-6.932z" fill="#72c2e9"/><path d="m173.502 108.642-18.712 18.702-5.053-5.053 18.712-18.702c4.4-4.4 4.441-11.597 0-16.037-4.43-4.42-11.607-4.42-16.037 0l-18.702 18.712-5.053-5.053 18.702-18.712c7.268-7.248 18.937-7.187 26.134-.01 7.226 7.227 7.236 18.926.009 26.153z" fill="#afafaf"/><path d="m168.448 103.589-18.712 18.702-13.496 13.496-5.053 5.053-16.027-16.027 18.549-18.549 18.702-18.712c4.431-4.42 11.607-4.42 16.037 0 4.421 4.42 4.431 11.606 0 16.037z" fill="#efefef"/><path d="m23.07 209.123h7.146v40.467h-7.146z" fill="#4ba5c8" transform="matrix(.707 -.707 .707 .707 -154.376 86.017)"/><path d="m107.984 124.21h7.146v40.467h-7.146z" fill="#4ba5c8" transform="matrix(.707 -.707 .707 .707 -69.463 121.189)"/><path d="m122.127 118.966h7.146v22.666h-7.146z" fill="#afafaf" transform="matrix(.707 -.707 .707 .707 -55.319 127.045)"/></g></g><g><g><path d="m165.208 202.573c-3.729-1.228-6.641-2.022-8.591-10.421-.635-2.737-4.548-2.73-5.181 0-1.907 8.213-4.566 9.092-8.591 10.422-2.424.801-2.43 4.248 0 5.051 6.686 2.209 7.444 5.476 8.591 10.421.637 2.743 4.545 2.742 5.182 0 1.905-8.212 4.709-9.139 8.591-10.421 2.423-.802 2.429-4.25-.001-5.052z"/><path d="m158.018 205.123c-1.48 1.03-2.8 2.42-3.94 4.44-.94-1.59-2.25-3.09-4.16-4.4 1.55-1.07 2.93-2.51 4.12-4.64 1.2 2.16 2.56 3.59 3.98 4.6z" fill="#f0c020"/></g><g><path d="m62.73 100.094c-3.729-1.228-6.641-2.022-8.591-10.421-.635-2.737-4.548-2.73-5.181 0-1.907 8.213-4.566 9.092-8.591 10.422-2.424.801-2.43 4.248 0 5.051 6.686 2.209 7.444 5.476 8.591 10.421.637 2.743 4.545 2.742 5.182 0 1.905-8.212 4.709-9.139 8.591-10.421 2.423-.802 2.428-4.249-.001-5.052z"/><path d="m55.54 102.644c-1.48 1.03-2.8 2.42-3.94 4.44-.94-1.59-2.25-3.09-4.16-4.4 1.55-1.07 2.93-2.51 4.12-4.64 1.2 2.16 2.56 3.59 3.98 4.6z" fill="#f0c020"/></g></g></g></g><g id="Layer_4"><g><path d="m200.458 160.939c-.226 0-.454-.031-.683-.095-1.328-.376-2.1-1.758-1.724-3.086l.817-2.886c.377-1.328 1.754-2.099 3.087-1.724 1.328.376 2.1 1.758 1.724 3.086l-.817 2.886c-.311 1.1-1.313 1.819-2.404 1.819zm3.544-12.508c-.226 0-.455-.031-.683-.095-1.328-.376-2.1-1.758-1.724-3.087l37.033-130.702c.376-1.328 1.761-2.1 3.087-1.724 1.328.376 2.1 1.758 1.724 3.087l-37.033 130.702c-.311 1.101-1.314 1.819-2.404 1.819z" fill="#fff"/></g><g><path d="m49.137 235.155c-.663 0-1.299-.263-1.768-.732l-25.791-25.792c-.977-.976-.977-2.559 0-3.535.977-.977 2.559-.977 3.535 0l24.023 24.023 54.756-54.756c.977-.977 2.559-.977 3.535 0 .977.976.977 2.559 0 3.535l-56.523 56.524c-.468.47-1.104.733-1.767.733zm63.594-63.595c-.64 0-1.279-.244-1.768-.732-.977-.976-.977-2.559 0-3.535l2.121-2.121c.977-.977 2.559-.977 3.535 0 .977.976.977 2.559 0 3.535l-2.121 2.121c-.487.487-1.127.732-1.767.732z" fill="#f8e5b0"/></g></g><g id="Layer_2"><path d="m237.37 2.94-39.78 11.27c-1.341.377-2.107 1.768-1.72 3.09.359 1.29 1.779 2.08 3.08 1.72l39.779-11.27c5.925-1.646 11.12 3.847 9.521 9.52l-40.58 143.21c-1.57 5.577-8.624 7.556-12.86 3.35l-41.535-41.535 3.725-3.725c1.003-1.025.943-2.596 0-3.54-.95-.94-2.59-.94-3.54 0l-22.273 22.273-12.491-12.49c7.388-7.39 28.06-28.067 35.484-35.493 3.463-3.442 9.037-3.442 12.5 0 3.195 3.195 3.444 8.257.68 11.74-.85 1.07-.67 2.65.41 3.51 1.05.83 2.681.64 3.511-.41 4.238-5.336 4.048-13.272-1.07-18.37-5.383-5.403-14.159-5.4-19.57-.01l-16.938 16.942-41.533-41.532c-4.213-4.243-2.23-11.289 3.35-12.86l84.19-23.86c1.32-.38 2.1-1.76 1.72-3.09-.36-1.29-1.78-2.08-3.08-1.72l-84.19 23.86c-9.354 2.649-12.379 14.352-5.521 21.21l41.528 41.528-15.011 15.015-.913-.913c-2.969-2.97-7.783-2.97-10.752 0l-8.771 8.771-.281-.281c-2.978-2.978-7.802-2.968-10.75 0l-33.159 33.15c-.934.932-1.015 2.505 0 3.54.939.94 2.59.94 3.529 0l33.16-33.16c.995-.995 2.609-1.038 3.69 0 3.9 3.901 28.924 28.932 32.71 32.72 1.06 1.083.968 2.711 0 3.68l-71.919 71.92c-1.37 1.369-3.65 1.459-5.131 0-2.851-2.851-25.744-25.745-31.27-31.27-1.423-1.445-1.404-3.725 0-5.13l24.62-24.62c.979-.98.979-2.56 0-3.54-.94-.94-2.59-.94-3.53 0l-24.62 24.62c-3.177 3.178-3.412 8.286-.419 11.74l-5.188 5.188c-4.947 4.948-4.948 13.008 0 17.97l14.182 14.182c4.957 4.942 13.016 4.95 17.968-.002l5.187-5.188c3.508 3.059 8.651 2.679 11.73-.419l71.92-71.92c2.946-2.925 2.994-7.756 0-10.75l-.28-.28 8.771-8.771c2.965-2.965 2.965-7.789 0-10.752l-.918-.918 15.016-15.01 41.531 41.531c6.82 6.848 18.554 3.837 21.21-5.51l40.58-143.22c2.721-9.564-6.174-18.423-15.689-15.691zm-202.593 243.361c-3.002 3.001-7.892 3-10.899 0l-14.177-14.177c-3.002-3.01-3.003-7.9-.003-10.901l5.167-5.167 25.079 25.079zm97.328-97.327-8.771 8.771-25.079-25.079 8.771-8.771c.982-.981 2.699-.981 3.682 0 10.817 10.818 20.226 20.225 21.397 21.397 1.015 1.015 1.015 2.667 0 3.682z"/><path d="m187.97 16.93c-1.377.402-2.091 1.808-1.729 3.09.403 1.391 1.875 2.107 3.09 1.72 1.348-.379 2.107-1.778 1.72-3.08-.362-1.29-1.781-2.09-3.081-1.73z"/><path d="m43.46 169.07c-.932.933-1.017 2.501 0 3.54.973.973 2.552.976 3.53 0 .979-.98.979-2.56 0-3.54-.94-.94-2.591-.94-3.53 0z"/><path d="m160.54 107.96c-.98.98-.98 2.56-.01 3.54 1.031 1.01 2.601.938 3.539 0 .932-.931 1.017-2.503 0-3.54-.939-.94-2.59-.94-3.529 0z"/></g></svg>