<svg id="&#x421;&#x43B;&#x43E;&#x439;_1" viewBox="0 0 1945.11 2023.31" xmlns="http://www.w3.org/2000/svg"><path d="m416.66 1757.86v-1306.96l697.26-370.56 686.73 370.56v1306.96z" fill="#fff"/><path d="m419.57 1550.23h1381.08v207.63h-1381.08z" fill="#8f8f8f"/><path d="m2659.42 1303.5a41 41 0 0 1 -23.8-7.82l-748.94-413.46-748.93 413.45c-22.64 16-51.67 6.68-64.84-20.83s-5.5-62.78 17.14-78.79l772.78-434.24c14.74-10.42 33-10.42 47.7 0l772.78 434.24c22.64 16 30.31 51.28 17.14 78.79-8.8 18.39-24.7 28.66-41.03 28.66z" fill="#f5746f" transform="translate(-777.44 -738.34)"/><rect fill="#ffe06d" height="583.95" rx="92.25" width="1201.2" x="237.97" y="684.05"/><path d="m736.38 1508.06h204.38a0 0 0 0 1 0 0v402.39a97.2 97.2 0 0 1 -97.2 97.2h-10a97.2 97.2 0 0 1 -97.2-97.2v-402.39a0 0 0 0 1 0 0z" fill="#ceff6f"/><path d="m179 836.52h59a0 0 0 0 1 0 0v279a0 0 0 0 1 0 0h-59a66.51 66.51 0 0 1 -66.53-66.52v-146a66.51 66.51 0 0 1 66.53-66.48z" fill="#8f8f8f"/><path d="m1439.17 836.52h59.83a65.71 65.71 0 0 1 65.71 65.71v147.57a65.71 65.71 0 0 1 -65.71 65.71h-59.79a0 0 0 0 1 0 0v-279a0 0 0 0 1 -.04.01z" fill="#8f8f8f"/><ellipse cx="1108.85" cy="444.53" fill="#ebfdff" rx="122.22" ry="120.74"/><g fill="none" stroke="#000" stroke-linecap="round" stroke-linejoin="round" stroke-width="31.31"><path d="m940.76 1550.23h623.2"/><path d="m419.57 1550.23h316.81"/><path d="m1652.17 1550.23h148.48"/><path d="m1800.64 652.67v-127.07"/><path d="m416.68 683.29v-157.07"/><path d="m736.38 1757.86h-319.72v-294.88"/><path d="m1061.18 1757.86h-120.42"/><path d="m1800.65 727.39v1030.47h-629.2"/><path d="m1616 2246.4v-39.52c0-33.71-30.21-61-67.47-61h-688.47c-37 0-67-27.12-67-60.58v-329c0-33.75 30.49-61 67.79-60.58l29 .32" transform="translate(-777.44 -738.34)"/><path d="m736.38 1601.27h204.38"/><path d="m1616 1902.52h401.14c46.4 0 84-37.16 84-83v-79.11" transform="translate(-777.44 -738.34)"/><path d="m1323.73 940.08v-53.95"/><path d="m1437.45 1422.39h686.36c51.26 0 92.81 41.05 92.81 91.69v400.57c0 50.64-41.55 91.69-92.81 91.69h-1015.59c-51.26 0-92.81-41.05-92.81-91.69v-400.57c0-50.64 41.55-91.69 92.81-91.69h224.21" transform="translate(-777.44 -738.34)"/><path d="m838.57 1931.05v-67.02"/><path d="m2700.45 1274.84c-8.78 18.4-24.69 28.67-41 28.67a41 41 0 0 1 -23.79-7.82l-57.54-31.75-691.43-381.71-692.57 382.33-56.36 31.12c-22.64 16-51.67 6.65-64.86-20.85s-5.47-62.76 17.17-78.79l772.76-434.23c14.77-10.43 33-10.43 47.69 0l772.8 434.23c22.68 16.04 30.32 51.29 17.13 78.8z" transform="translate(-777.44 -738.34)"/><path d="m736.38 1508.06h204.38a0 0 0 0 1 0 0v402.39a97.2 97.2 0 0 1 -97.2 97.2h-10a97.2 97.2 0 0 1 -97.2-97.2v-402.39a0 0 0 0 1 0 0z"/><path d="m179 836.52h59a0 0 0 0 1 0 0v279a0 0 0 0 1 0 0h-59a66.51 66.51 0 0 1 -66.53-66.52v-146a66.51 66.51 0 0 1 66.53-66.48z"/><path d="m1439.17 836.52h59.83a65.71 65.71 0 0 1 65.71 65.71v147.57a65.71 65.71 0 0 1 -65.71 65.71h-59.79a0 0 0 0 1 0 0v-279a0 0 0 0 1 -.04.01z"/><ellipse cx="1108.85" cy="444.53" rx="122.22" ry="120.74"/></g></svg>