<svg width="32" height="32" viewBox="0 0 32 32" fill="none" xmlns="http://www.w3.org/2000/svg">
  <rect width="32" height="32" rx="8" fill="#0F172A"/>
  <path d="M8 10C8 8.89543 8.89543 8 10 8H22C23.1046 8 24 8.89543 24 10V18C24 19.1046 23.1046 20 22 20H10C8.89543 20 8 19.1046 8 18V10Z" fill="url(#paint0_linear)"/>
  <path d="M10 22C8.89543 22 8 22.8954 8 24V24C8 25.1046 8.89543 26 10 26H16C17.1046 26 18 25.1046 18 24V24C18 22.8954 17.1046 22 16 22H10Z" fill="#94A3B8"/>
  <defs>
    <linearGradient id="paint0_linear" x1="8" y1="8" x2="24" y2="20" gradientUnits="userSpaceOnUse">
      <stop stop-color="white"/>
      <stop offset="1" stop-color="#CBD5E1"/>
    </linearGradient>
  </defs>
</svg>