<svg enable-background="new 0 0 512 512" viewBox="0 0 512 512" xmlns="http://www.w3.org/2000/svg"><g id="_x39_2_Business_Insights"><g><path d="m402.2 194.137c0 49.383-24.475 93.059-61.979 119.532-10.434 7.365-16.636 19.335-16.636 32.106h-135.164c0-12.771-6.203-24.741-16.636-32.106-37.505-26.473-61.979-70.149-61.979-119.532 0-80.723 65.436-146.198 146.198-146.198 80.76 0 146.196 65.475 146.196 146.198z" fill="#fbca43"/><path d="m402.187 194.158c0 49.364-24.439 93.022-61.95 119.51-10.439 7.365-16.634 19.317-16.634 32.096h-135.169c0-6.39-1.561-12.584-4.39-18.097-2.878-5.512-7.024-10.292-12.244-13.999-15.268-10.781-28.39-24.439-38.536-40.097 23.317 13.756 50.536 21.658 79.608 21.658 86.681 0 156.924-70.243 156.924-156.924 0-14.829-2.049-29.17-5.902-42.78 23.805 26 38.293 60.634 38.293 98.633z" fill="#fff" opacity=".4"/><path d="m337.837 362.862c0 9.437-7.65 17.087-17.087 17.087h-129.494c-9.437 0-17.087-7.65-17.087-17.087 0-9.437 7.65-17.087 17.087-17.087h129.494c9.436 0 17.087 7.65 17.087 17.087z" fill="#65cef8"/><path d="m337.837 397.036c0 9.437-7.65 17.087-17.087 17.087h-129.494c-9.437 0-17.087-7.65-17.087-17.087 0-9.437 7.65-17.087 17.087-17.087h129.494c9.436 0 17.087 7.65 17.087 17.087z" fill="#65cef8"/><path d="m312.781 414.123c0 27.591-22.367 49.959-49.959 49.959h-13.639c-27.591 0-49.959-22.367-49.959-49.959z" fill="#efe9e5"/><path d="m212.921 239.893c0 .161 0 .353-.032.514-.225 4.917-4.21 8.87-9.128 9.095-.16.032-.321.032-.482.032h-23.815c-.16 0-.321 0-.482-.032h-2.796c.129-.128.257-.257.386-.386-3.921-1.253-6.749-4.885-6.749-9.224v-91.948c0-5.335 4.306-9.642 9.642-9.642h23.815c5.142 0 9.384 4.049 9.609 9.159.041 116.928.031 87.663.032 92.432z" fill="#65cef8"/><path d="m212.889 147.463v92.944c-.225 4.917-4.21 8.87-9.128 9.095h-27.575c.129-.128.257-.257.386-.386 15.523-15.105 25.132-36.284 25.132-59.649 0-19.283-6.524-37.023-17.547-51.164h19.122c5.143.001 9.385 4.05 9.61 9.16z" fill="#fff" opacity=".4"/><path d="m277.551 115.935v123.958c0 5.174-4.049 9.352-9.127 9.609-.161.032-.354.032-.514.032h-23.815c-.161 0-.321 0-.482-.032-5.11-.225-9.16-4.435-9.16-9.609v-123.958c0-3.921 2.346-7.295 5.689-8.774 1.189-.546 2.539-.868 3.953-.868h23.815c5.303.001 9.641 4.307 9.641 9.642z" fill="#fc575b"/><path d="m277.551 115.935v123.958c0 5.174-4.049 9.352-9.127 9.609h-24.811c-5.11-.225-9.16-4.435-9.16-9.609v-24.779c18.897-11.441 31.528-32.171 31.528-55.921 0-21.243-10.124-40.109-25.839-52.032 1.189-.546 2.539-.868 3.953-.868h23.815c5.303.001 9.641 4.307 9.641 9.642z" fill="#fff" opacity=".4"/><path d="m342.182 160.608v79.285c0 5.174-4.017 9.352-9.128 9.609-.16.032-.353.032-.514.032h-23.815c-.16 0-.321 0-.482-.032-5.078-.225-9.159-4.435-9.159-9.609v-79.285c0-5.303 4.339-9.641 9.642-9.641h23.815c5.334-.001 9.641 4.338 9.641 9.641z" fill="#c87848"/><path d="m342.182 160.608v79.285c0 5.174-4.017 9.352-9.128 9.609h-24.811c-5.078-.225-9.159-4.435-9.159-9.609v-3.085c18.769-7.424 32.01-25.711 32.01-47.147 0-15.491-6.942-29.374-17.933-38.694h19.38c5.334-.001 9.641 4.338 9.641 9.641z" fill="#fff" opacity=".4"/><g><path d="m255.995 41.82c-83.973 0-152.291 68.339-152.291 152.336 0 49.399 24.142 95.94 64.562 124.478 7.694 5.47 12.595 13.549 13.794 22.963-8.218 3.568-13.99 11.746-13.99 21.262 0 6.788 2.984 12.844 7.647 17.087-4.663 4.243-7.647 10.299-7.647 17.087 0 12.786 10.401 23.185 23.185 23.185h2.219c3.051 28.051 26.862 49.961 55.709 49.961h13.638c28.847 0 52.658-21.91 55.709-49.961h2.219c12.783 0 23.185-10.399 23.185-23.185 0-6.788-2.984-12.844-7.647-17.087 4.663-4.243 7.647-10.299 7.647-17.087 0-9.506-5.76-17.674-13.963-21.248 1.162-9.178 6.123-17.558 13.777-22.963 28.996-20.441 50.037-50.509 59.252-84.659.876-3.249-1.048-6.598-4.299-7.474-3.258-.876-6.6 1.048-7.477 4.302-8.472 31.407-27.829 59.06-54.508 77.866-10.351 7.312-17.113 18.597-18.8 30.983h-123.8c-1.666-12.209-8.074-23.352-18.797-30.983-37.206-26.267-59.419-69.082-59.419-114.527 0-77.276 62.847-140.141 140.096-140.141 71.49 0 131.336 53.51 139.205 124.474.372 3.344 3.361 5.835 6.731 5.388 3.346-.372 5.759-3.382 5.388-6.731-8.556-77.148-73.611-135.326-151.325-135.326zm6.827 416.165h-13.638c-22.118 0-40.462-16.454-43.44-37.766h100.517c-2.977 21.313-21.322 37.766-43.439 37.766zm68.917-60.951c0 6.059-4.93 10.99-10.99 10.99-56.749 0-30.972 0-129.495 0-6.059 0-10.99-4.93-10.99-10.99 0-6.059 4.93-10.99 10.99-10.99h129.496c6.059.001 10.989 4.931 10.989 10.99zm-10.989-23.184h-129.495c-6.059 0-10.99-4.93-10.99-10.99 0-6.059 4.93-10.99 10.99-10.99h129.495c6.059 0 10.99 4.93 10.99 10.99-.001 6.06-4.931 10.99-10.99 10.99z"/><path d="m203.281 132.205h-23.816c-8.679 0-15.739 7.06-15.739 15.739v91.948c0 8.699 7.051 15.739 15.739 15.739h23.816c8.535 0 15.737-7.042 15.737-15.739-.015-99.66.033-91.829-.038-92.7-.372-8.404-7.267-14.987-15.699-14.987zm3.518 107.92c-.081 1.763-1.536 3.201-3.313 3.282-.994.039-22.975.043-24.295 0-1.923-.085-3.27-1.741-3.27-3.516v-91.948c0-1.953 1.591-3.544 3.544-3.544h23.816c1.889 0 3.435 1.462 3.518 3.335.024.582.047 91.3 0 92.391z"/><path d="m244.096 100.198c-2.232 0-4.48.495-6.419 1.386-5.662 2.501-9.32 8.136-9.32 14.353v123.954c0 8.778 7.089 15.739 15.739 15.739h23.813c8.571 0 15.739-6.931 15.739-15.739v-123.954c0-8.679-7.06-15.739-15.739-15.739zm27.357 15.739v123.954c0 1.882-1.465 3.425-3.332 3.52-.835.036-23.158.037-24.24-.005-1.867-.081-3.33-1.624-3.33-3.516v-123.953c0-1.391.807-2.644 2.144-3.239.436-.2.919-.305 1.401-.305h23.813c1.953 0 3.544 1.591 3.544 3.544z"/><path d="m308.726 144.867c-8.679 0-15.739 7.06-15.739 15.739v79.286c0 8.797 7.106 15.739 15.739 15.739h23.813c8.593 0 15.739-6.945 15.739-15.739v-79.286c0-8.679-7.06-15.739-15.739-15.739zm27.358 15.739v79.286c0 1.91-1.431 3.425-3.33 3.52-.112.005-.226.014-.336.024-11.363-.011-22.601.023-23.906-.029-1.867-.081-3.33-1.624-3.33-3.516v-79.286c0-1.92 1.622-3.544 3.544-3.544h23.813c1.954.001 3.545 1.592 3.545 3.545z"/><path d="m431.275 149.168 33.924-33.927c2.382-2.382 2.382-6.24 0-8.622s-6.24-2.382-8.622 0l-33.924 33.927c-2.382 2.382-2.382 6.24 0 8.622s6.241 2.382 8.622 0z"/><path d="m499.898 199.01h-47.977c-3.368 0-6.097 2.73-6.097 6.097s2.73 6.097 6.097 6.097h47.977c3.368 0 6.097-2.73 6.097-6.097s-2.729-6.097-6.097-6.097z"/><path d="m431.275 261.052c-2.382-2.382-6.24-2.382-8.622 0s-2.382 6.24 0 8.622l33.924 33.922c2.382 2.382 6.24 2.382 8.622 0s2.382-6.24 0-8.622z"/><path d="m55.425 106.62c-2.382-2.382-6.24-2.382-8.622 0s-2.382 6.24 0 8.622l33.924 33.927c2.382 2.382 6.24 2.382 8.622 0s2.382-6.24 0-8.622z"/><path d="m66.179 205.108c0-3.368-2.73-6.097-6.097-6.097h-47.98c-3.368 0-6.097 2.73-6.097 6.097s2.73 6.097 6.097 6.097h47.979c3.368 0 6.098-2.729 6.098-6.097z"/><path d="m80.727 261.052-33.924 33.922c-2.382 2.382-2.382 6.24 0 8.622s6.24 2.382 8.622 0l33.924-33.922c2.382-2.382 2.382-6.24 0-8.622s-6.24-2.382-8.622 0z"/></g></g></g><g id="Layer_1"/></svg>