<svg id="Capa_1" enable-background="new 0 0 512 512" viewBox="0 0 512 512" xmlns="http://www.w3.org/2000/svg"><g><g><g><path d="m410.026 257.347c42.888 0 82.212-43.881 82.212-86.769 0-16.335-12.783-35.96-21.397-48.466-12.507-8.615-27.663-13.658-43.998-13.658h-341.688c-42.888 0-77.656 34.768-77.656 77.656 0 16.335 5.044 31.491 13.658 43.998 12.507 8.615 27.663 13.658 43.998 13.658z" fill="#00f2a6"/></g><g><path d="m470.842 122.111c8.615 12.507 13.658 27.663 13.658 43.998 0 42.888-34.768 77.656-77.656 77.656h-341.688c-16.335 0-31.491-5.044-43.998-13.658 14.004 20.331 37.444 33.658 63.998 33.658h341.688c42.888 0 77.656-34.768 77.656-77.656 0-26.553-13.328-49.994-33.658-63.998z" fill="#05e39c"/></g><g><path d="m324.516 314.274c0-17.62-11.728-37.252-21.617-50.283-13.031-9.888-29.28-15.757-46.9-15.757-42.888 0-77.656 34.768-77.656 77.656 0 17.62 5.868 33.869 15.757 46.9 13.031 9.888 29.28 15.757 46.9 15.757 42.889 0 83.516-31.385 83.516-74.273z" fill="#eaf6ff"/></g><g><path d="m302.9 263.991c9.888 13.031 15.757 29.28 15.757 46.9 0 42.888-34.768 77.656-77.656 77.656-17.62 0-33.869-5.868-46.9-15.757 14.181 18.688 36.631 30.757 61.9 30.757 42.888 0 77.656-34.768 77.656-77.656-.001-25.269-12.07-47.719-30.757-61.9z" fill="#d8ecfe"/></g></g><g><path d="m312.141 215.354 3.132-8.223h21.718l3.095 8.201c1.134 3.003 3.987 4.854 7.019 4.854.879 0 1.775-.156 2.646-.485 3.875-1.462 5.832-5.789 4.369-9.665 0 0-19.833-52.551-19.861-52.619-1.349-3.276-4.507-5.391-8.049-5.391h-.011c-3.546.004-6.704 2.127-8.046 5.409-.023.057-20.028 52.579-20.028 52.579-1.475 3.871.468 8.204 4.339 9.679 3.871 1.477 8.203-.468 9.677-4.339zm19.189-23.222h-10.344l5.196-13.643z"/><path d="m457.906 167.272c4.142 0 7.5-3.357 7.5-7.5s-3.358-7.5-7.5-7.5h-22.194c-4.142 0-7.5 3.357-7.5 7.5v52.674c0 4.143 3.358 7.5 7.5 7.5h22.194c4.142 0 7.5-3.357 7.5-7.5s-3.358-7.5-7.5-7.5h-14.694v-11.337h13.058c4.142 0 7.5-3.357 7.5-7.5s-3.358-7.5-7.5-7.5h-13.058v-11.337z"/><path d="m373.851 219.402 15.007-.114c16.093-.281 27.773-14.235 27.773-33.179 0-19.913-11.386-33.293-28.332-33.293h-14.506c-4.142 0-7.5 3.357-7.5 7.5v51.586c0 1.999.798 3.915 2.217 5.323 1.405 1.395 3.305 2.177 5.283 2.177zm7.443-51.586h7.006c12.371 0 13.332 14.002 13.332 18.293 0 8.937-4.031 18.023-12.961 18.18l-7.376.057v-36.53z"/><path d="m200.281 167.029c3.824 0 7.511 1.125 10.662 3.255 3.432 2.317 8.094 1.416 10.413-2.016 2.319-3.433 1.417-8.095-2.016-10.414-5.641-3.811-12.231-5.825-19.06-5.825-18.792 0-34.08 15.288-34.08 34.08 0 18.791 15.288 34.079 34.08 34.079 17.925 0 30.444-14.014 30.444-34.079 0-4.143-3.358-7.5-7.5-7.5h-15.902c-4.142 0-7.5 3.357-7.5 7.5s3.358 7.5 7.5 7.5h7.423c-1.791 6.38-6.195 11.579-14.465 11.579-10.521 0-19.08-8.559-19.08-19.079s8.561-19.08 19.081-19.08z"/><path d="m54.094 152.03c-4.142 0-7.5 3.357-7.5 7.5v36.579c0 8.331 3.97 15.093 11.802 20.099 4.126 2.635 8.779 3.975 13.825 3.98h.042c4.34 0 8.418-.945 12.124-2.811 11.691-5.888 14.145-14.837 14.145-21.308v-36.54c0-4.143-3.358-7.5-7.5-7.5s-7.5 3.357-7.5 7.5v36.54c0 2.444-.7 5.296-5.891 7.91-1.615.812-3.374 1.208-5.378 1.208h-.021c-2.178-.003-4.066-.533-5.77-1.621-4.062-2.597-4.878-4.778-4.878-7.458v-36.578c0-4.142-3.358-7.5-7.5-7.5z"/><path d="m286.046 173.345c0-11.753-9.913-21.315-22.097-21.315h-14.144c-4.142 0-7.5 3.357-7.5 7.5v53.159c0 4.143 3.358 7.5 7.5 7.5s7.5-3.357 7.5-7.5v-12.782l15.611 17.737c1.482 1.685 3.552 2.545 5.633 2.545 1.76 0 3.527-.616 4.952-1.87 3.109-2.736 3.412-7.476.675-10.585l-12.644-14.366c8.46-2.992 14.514-10.839 14.514-20.023zm-28.741-6.316h6.644c3.847 0 7.097 2.893 7.097 6.315s-3.25 6.315-7.13 6.315l-6.611.029z"/><path d="m117.025 152.03c-4.142 0-7.5 3.357-7.5 7.5v53.158c0 4.143 3.358 7.5 7.5 7.5s7.5-3.357 7.5-7.5v-15.622l7.302-.033c12.569 0 22.795-10.095 22.795-22.502s-10.226-22.501-22.795-22.501zm22.597 22.501c0 4.066-3.57 7.502-7.829 7.502l-7.268.033v-15.036h7.302c4.225 0 7.795 3.435 7.795 7.501z"/><path d="m426.844 100.953h-256.264c-4.142 0-7.5 3.357-7.5 7.5s3.358 7.5 7.5 7.5h256.264c38.684 0 70.156 31.472 70.156 70.156s-31.472 70.156-70.156 70.156h-121.865c-13.862-9.781-30.762-15.531-48.979-15.531-17.712 0-34.802 5.568-48.987 15.531h-121.857c-38.684.001-70.156-31.471-70.156-70.156s31.472-70.156 70.156-70.156h50.423c4.142 0 7.5-3.357 7.5-7.5s-3.358-7.5-7.5-7.5h-50.423c-46.955 0-85.156 38.201-85.156 85.156s38.201 85.156 85.156 85.156h105.516c-1.35 1.611-2.644 3.277-3.88 4.997-2.416 3.364-1.647 8.051 1.717 10.467 3.365 2.416 8.05 1.648 10.467-1.717 13.167-18.333 34.484-29.278 57.023-29.278 38.684 0 70.156 31.472 70.156 70.156s-31.471 70.157-70.155 70.157-70.156-31.472-70.156-70.156c0-3.885.32-7.781.95-11.58.678-4.086-2.085-7.948-6.171-8.626-4.085-.683-7.948 2.084-8.627 6.171-.765 4.607-1.152 9.33-1.152 14.035 0 46.955 38.201 85.156 85.156 85.156s85.156-38.201 85.156-85.156c0-20.771-7.476-39.829-19.877-54.625h105.565c46.955 0 85.156-38.201 85.156-85.156s-38.201-85.157-85.156-85.157z"/><path d="m256 372.219c4.142 0 7.5-3.357 7.5-7.5v-59.55l18.259 18.26c1.464 1.464 3.384 2.196 5.303 2.196s3.839-.732 5.303-2.196c2.929-2.93 2.929-7.678 0-10.607 0 0-31.451-31.425-31.463-31.435-1.38-1.191-3.113-1.824-4.902-1.824-1.91 0-3.774.738-5.172 2.068-.017.016-31.194 31.19-31.194 31.19-2.929 2.93-2.929 7.678 0 10.607 2.929 2.928 7.678 2.928 10.606 0l18.259-18.26v59.55c.001 4.143 3.359 7.501 7.501 7.501z"/></g></g><g/><g/><g/><g/><g/><g/><g/><g/><g/><g/><g/><g/><g/><g/><g/></svg>