<svg clip-rule="evenodd" fill-rule="evenodd" stroke-linejoin="round" stroke-miterlimit="2" viewBox="0 0 510 510" xmlns="http://www.w3.org/2000/svg"><g id="Artboard351"><g><g><g><path d="m370.659 37.364c12.019 2.86 23.493 7.617 34.002 14.093l22.095-9.803 26.032 26.033-9.802 22.095c6.476 10.509 11.232 21.982 14.093 34.002l22.545 8.678v36.83l-22.545 8.678c-2.861 12.003-7.617 23.477-14.093 33.986l9.802 22.095-26.032 26.048-22.095-9.818c-10.509 6.476-21.983 11.249-34.002 14.109l-8.678 22.529h-36.83l-8.678-22.545c-12.004-2.861-23.477-7.617-33.986-14.093l-22.095 9.818-26.049-26.048 9.819-22.079c-6.476-10.525-11.249-21.999-14.109-34.002l-22.529-8.678v-36.83l22.529-8.678c2.86-12.02 7.633-23.493 14.109-34.002l-9.819-22.095 26.049-26.033 22.079 9.803c10.525-6.476 21.998-11.233 34.002-14.093l8.678-22.545h36.83z" fill="#9facba"/><path d="m419.332 44.949 7.424-3.295 26.032 26.033-9.802 22.095c6.476 10.509 11.232 21.982 14.093 34.002l22.545 8.678v36.83l-22.545 8.678c-2.861 12.003-7.617 23.477-14.093 33.986l9.802 22.095-26.032 26.048-7.424-3.294 22.754-22.754-9.818-22.095c6.476-10.509 11.232-21.983 14.093-33.986l22.545-8.678v-36.83l-22.545-8.678c-2.861-12.02-7.617-23.493-14.093-34.002l9.818-22.095zm-162.235 0 3.295-3.295 22.079 9.803c-1.559.867-3.102 1.767-4.612 2.715zm113.562-7.585c12.019 2.86 23.493 7.617 34.002 14.093l-6.09 2.715c-10.509-6.475-26.611-13.948-38.631-16.808l-8.677-22.545h10.718zm-88.172 212.917-22.095 9.818-3.295-3.294 20.762-9.224c1.51.932 3.053 1.832 4.628 2.7zm122.174 0c-10.509 6.476-21.983 11.249-34.002 14.109l-8.678 22.529h-10.718l8.677-22.529c12.02-2.86 28.122-10.333 38.647-16.809z" fill="#8d9ca8"/><path d="m343.567 87.528c34.987 0 63.348 28.36 63.348 63.347 0 34.974-28.361 63.335-63.348 63.335-34.974 0-63.334-28.361-63.334-63.335 0-34.987 28.36-63.347 63.334-63.347z" fill="#eceff1"/><path d="m343.567 87.528c1.442 0 2.87.052 4.298.155-32.979 2.2-59.062 29.647-59.062 63.192 0 33.533 26.083 60.98 59.062 63.193-1.428.09-2.856.142-4.298.142-34.974 0-63.334-28.361-63.334-63.335 0-34.987 28.36-63.347 63.334-63.347z" fill="#d1d1d6"/></g><g><path d="m230.11 205.985c36.863 0 66.989-30.05 66.989-66.989 0-36.863-30.126-66.989-66.989-66.989-36.939 0-66.989 30.126-66.989 66.989 0 36.939 30.05 66.989 66.989 66.989z" fill="#f6dccd"/><path d="m230.11 72.007c37.014 0 66.989 30.051 66.989 66.989 0 37.014-29.975 66.989-66.989 66.989-1.817 0-3.634-.076-5.374-.151 34.516-2.801 61.614-31.64 61.614-66.838 0-35.197-27.098-64.037-61.614-66.762 1.74-.151 3.557-.227 5.374-.227z" fill="#f1cbbc"/><path d="m154.416 147.549h151.312c5.601 0 10.143-4.617 10.143-10.142 0-5.602-4.542-10.143-10.143-10.143h-2.044c.151-1.893.227-3.861.227-5.829 0-32.775-21.421-60.63-51.093-70.244 1.135-11.581-13.171-15.29-22.708-15.29-9.613 0-23.844 3.709-22.784 15.29-29.596 9.614-51.093 37.469-51.093 70.244 0 1.968.075 3.936.227 5.829h-2.044c-5.601 0-10.143 4.541-10.143 10.143 0 5.525 4.542 10.142 10.143 10.142z" fill="#ffe177"/><path d="m295.055 147.549h10.673c5.601 0 10.143-4.617 10.143-10.142 0-5.602-4.542-10.143-10.143-10.143h-2.044c.151-1.893.227-3.861.227-5.829 0-32.775-21.421-60.63-51.093-70.244 1.135-11.581-13.171-15.29-22.708-15.29-1.666 0-3.558.152-5.374.379 8.704 1.211 18.317 5.374 17.333 14.911 29.672 9.614 51.169 37.469 51.169 70.244 0 1.968-.075 3.936-.227 5.829h2.044c5.526 0 10.143 4.541 10.143 10.143 0 5.525-4.617 10.142-10.143 10.142z" fill="#ffd064"/><path d="m154.416 126.961h151.312c5.677 0 10.294 4.617 10.294 10.294 0 5.601-4.617 10.294-10.294 10.294h-151.312c-5.677 0-10.294-4.693-10.294-10.294 0-5.677 4.617-10.294 10.294-10.294z" fill="#ffe177"/><path d="m154.416 126.961h151.312c5.677 0 10.294 4.617 10.294 10.294 0 5.601-4.617 10.294-10.294 10.294h-2.422c-.228-5.525-4.769-9.915-10.295-9.915h-148.889v-.379c0-5.677 4.617-10.294 10.294-10.294z" fill="#ffd064"/><path d="m105.289 334.105h238.435c3.33 0 6.207-1.363 8.326-3.936 2.044-2.574 2.801-5.677 2.119-8.932-12.489-60.177-65.853-105.366-129.663-105.366-63.885 0-117.174 45.189-129.739 105.366-.681 3.255.076 6.358 2.195 8.932 2.12 2.573 4.996 3.936 8.327 3.936z" fill="#8ac9fe"/><path d="m322.227 334.105h21.497c3.33 0 6.207-1.363 8.326-3.936 2.044-2.574 2.801-5.677 2.119-8.932-12.489-60.177-65.853-105.366-129.663-105.366-3.633 0-7.191.152-10.748.455 59.041 4.693 107.182 48.141 118.99 104.911.681 3.255-.076 6.358-2.195 8.932-2.119 2.573-4.996 3.936-8.326 3.936z" fill="#60b7ff"/></g><g><g><path d="m114.744 247.916 75.352 32.292c2.918 1.254 4.698 3.954 4.698 7.135v62.905c0 49.918-35.749 88.469-84.121 96.903-48.372-8.434-84.121-46.985-84.121-96.903v-62.905c0-3.181 1.78-5.881 4.698-7.135l75.352-32.292c2.699-1.153 5.443-1.153 8.142 0z" fill="#6cf5c2"/><path d="m183.267 277.275 6.829 2.933c2.918 1.254 4.698 3.954 4.698 7.135v62.905c0 17.014-4.144 32.7-11.527 46.314z" fill="#00e499"/></g><path d="m63.241 354.146c-4.625-4.597-4.625-12.063 0-16.66 4.597-4.597 12.036-4.597 16.66 0l18.026 18.025 43.545-43.963c4.569-4.597 12.008-4.625 16.605-.056 4.625 4.597 4.625 12.036.056 16.633-22.483 22.706-29.253 29.782-51.876 52.377-4.597 4.625-12.063 4.625-16.66 0z" fill="#eceff1" fill-rule="nonzero"/></g><g><g><path d="m464.701 236.4h-199.71c-3.619 0-6.572 2.953-6.572 6.572v243.394c0 3.638 2.953 6.591 6.572 6.591h199.71c3.639 0 6.592-2.953 6.592-6.591v-243.394c0-3.619-2.953-6.572-6.592-6.572z" fill="#eceff1"/><path d="m464.701 236.4h-5.334v256.557h5.334c3.639 0 6.592-2.953 6.592-6.591v-243.394c0-3.619-2.953-6.572-6.592-6.572z" fill="#d1d1d6"/><path d="m318.426 217.203h23.858c2.449-10.186 11.617-17.764 22.572-17.764 10.937 0 20.123 7.578 22.571 17.764h23.841c3.413 0 6.183 2.77 6.183 6.166v23.179c0 3.395-2.77 6.165-6.183 6.165h-92.842c-3.395 0-6.165-2.77-6.165-6.165v-23.179c0-3.396 2.77-6.166 6.165-6.166z" fill="#e3a76f"/><path d="m411.268 217.203c3.413 0 6.183 2.77 6.183 6.166v23.179c0 3.395-2.77 6.165-6.183 6.165h-92.842c-3.395 0-6.165-2.77-6.165-6.165h92.841c3.396 0 6.166-2.788 6.166-6.184z" fill="#c48958"/><g><path d="m300.343 284.067h36.406c2.629 0 4.762 2.153 4.762 4.763v36.406c0 2.629-2.133 4.762-4.762 4.762h-36.406c-2.63 0-4.763-2.133-4.763-4.762v-36.406c0-2.61 2.133-4.763 4.763-4.763z" fill="#8ac9fe"/><path d="m329.052 284.067h7.697c2.629 0 4.762 2.153 4.762 4.763v36.406c0 2.629-2.133 4.762-4.762 4.762h-7.697c2.61 0 4.763-2.133 4.763-4.762v-36.406c0-2.61-2.153-4.763-4.763-4.763z" fill="#60b7ff"/></g><g><path d="m300.343 346.51h36.406c2.629 0 4.762 2.153 4.762 4.763v36.425c0 2.61-2.133 4.744-4.762 4.744h-36.406c-2.63 0-4.763-2.134-4.763-4.744v-36.425c0-2.61 2.133-4.763 4.763-4.763z" fill="#ffe177"/><path d="m329.052 346.51h7.697c2.629 0 4.762 2.153 4.762 4.763v36.425c0 2.61-2.133 4.744-4.762 4.744h-7.697c2.61 0 4.763-2.134 4.763-4.744v-36.425c0-2.61-2.153-4.763-4.763-4.763z" fill="#ffd064"/></g><g><path d="m300.343 408.962h36.406c2.629 0 4.762 2.153 4.762 4.763v36.425c0 2.61-2.133 4.744-4.762 4.744h-36.406c-2.63 0-4.763-2.134-4.763-4.744v-36.425c0-2.61 2.133-4.763 4.763-4.763z" fill="#fe646f"/><path d="m329.052 408.962h7.697c2.629 0 4.762 2.153 4.762 4.763v36.425c0 2.61-2.133 4.744-4.762 4.744h-7.697c2.61 0 4.763-2.134 4.763-4.744v-36.425c0-2.61-2.153-4.763-4.763-4.763z" fill="#fd4755"/></g></g></g></g><path d="m198.943 347.221v3.652c0 50.893-36.877 95.039-86.836 104.29-.963.178-1.951.178-2.914 0-49.929-9.251-86.808-53.397-86.808-104.29v-69.261c0-3.201 1.908-6.093 4.85-7.354l80.265-34.379c2.012-.862 4.288-.862 6.299-.001l10.809 4.628c18.092-17.287 40.431-30.17 65.286-36.929-19.209-11-33.534-29.629-38.792-51.703-10.185-.071-18.467-8.452-18.467-18.521 0-8.093 5.24-15.022 12.494-17.562.402-35.497 22.489-65.699 53.602-77.98 1.046-4.701 3.839-8.346 7.648-11.164 6.105-4.515 15.647-6.455 23.047-7.012.398-.029.797-.03 1.195 0 7.45.556 17.008 2.497 23.117 7.009 1.479 1.092 2.805 2.309 3.935 3.664 1.897-.678 4.024-.631 5.944.223 0 0 18.321 8.146 18.32 8.146 8.994-5.124 18.572-9.092 28.541-11.826l7.228-18.731c1.191-3.085 4.157-5.12 7.464-5.12h36.813c3.311 0 6.28 2.04 7.468 5.131 0 0 7.193 18.722 7.193 18.722 9.967 2.734 19.542 6.701 28.534 11.824l18.321-8.146c3.025-1.345 6.566-.688 8.907 1.653l26.025 26.025c2.338 2.338 2.997 5.874 1.658 8.897 0 0-8.117 18.325-8.118 18.325 5.128 8.998 9.097 18.582 11.832 28.581l18.686 7.191c3.088 1.189 5.126 4.157 5.126 7.466v36.814c0 3.309-2.038 6.277-5.126 7.466 0 0-18.69 7.193-18.69 7.192-2.739 9.967-6.727 19.542-11.832 28.533l6.222 14.045h4.898c11.428 0 20.766 9.339 20.766 20.767v234.763c0 11.432-9.335 20.751-20.766 20.751h-196.48c-11.431 0-20.766-9.319-20.766-20.751v-135.028zm-58.168-95.792 53.317 22.829c2.943 1.26 4.851 4.153 4.851 7.354v49.609h46.898v-83.735c0-11.428 9.338-20.767 20.766-20.767h10.923c-14.794-5.481-30.798-8.476-47.504-8.476-34.104 0-65.307 12.507-89.251 33.186zm26.891-95.555c8.085 26.775 33.01 46.369 62.36 46.369 29.349 0 54.275-19.594 62.359-46.369zm32.088-97.045c-22.316 10.881-37.845 33.528-38.601 59.927h20.984v-35.673c0-4.416 3.584-8 8-8 4.415 0 8 3.584 8 8v35.673h63.778v-35.673c0-4.416 3.585-8 8-8s8 3.584 8 8v35.673h21.059c-.758-26.374-16.312-48.999-38.605-59.893l-4.018 30.707c-.573 4.378-4.592 7.468-8.97 6.895s-7.468-4.592-6.895-8.97c0 0 5.296-40.475 5.297-40.484.285-2.309-1.319-3.536-3.118-4.444-3.756-1.896-8.618-2.601-12.64-2.929-3.982.328-8.823 1.033-12.567 2.926-1.798.91-3.404 2.141-3.113 4.456l5.296 40.475c.573 4.378-2.517 8.397-6.895 8.97s-8.397-2.517-8.97-6.895zm109.142 75.927h-157.664c-1.429 0-2.597 1.169-2.597 2.597 0 1.394 1.184 2.521 2.597 2.521h157.664c1.378 0 2.521-1.142 2.521-2.521 0-1.412-1.127-2.597-2.521-2.597zm-21.558-76.695c9.034 8.245 16.283 18.423 21.09 29.886 10.396-5.797 22.375-9.1 35.13-9.1 39.897 0 72.247 32.313 72.247 72.21 0 22.389-10.187 42.402-26.179 55.654.688 1.04 1.312 2.126 1.867 3.252h22.478c4.418 0 8 3.582 8 8v8.756h18.718l-5.016-11.326c-1.065-2.404-.881-5.177.493-7.419 6.008-9.808 10.466-20.477 13.126-31.666.61-2.567 2.447-4.669 4.909-5.617l17.414-6.702v-25.827l-17.414-6.702c-2.464-.948-4.302-3.052-4.911-5.622-2.657-11.215-7.074-21.879-13.114-31.68-1.383-2.244-1.571-5.026-.503-7.437l7.565-17.078-18.26-18.26-17.074 7.592c-2.413 1.073-5.199.886-7.447-.499-9.802-6.04-20.466-10.458-31.649-13.115-2.569-.611-4.671-2.45-5.618-4.914l-6.703-17.447h-25.829l-6.737 17.457c-.949 2.46-3.049 4.294-5.614 4.904-10.924 2.596-21.355 6.872-30.969 12.7zm25.945 45.618c1.066 5.217 1.653 10.609 1.715 16.13 7.179 2.552 12.419 9.459 12.419 17.544 0 10.109-8.365 18.492-18.468 18.521-2.317 9.729-6.396 18.789-11.878 26.821 9.449 13.874 24.94 23.301 42.694 24.484 5.265-8.295 14.529-13.805 25.074-13.805 4.436 0 8.645.973 12.424 2.716 13.685-10.262 22.542-26.614 22.542-45.033 0-31.059-25.188-56.21-56.247-56.21-11.15 0-21.538 3.24-30.275 8.832zm-5.56 139.04h-41.116c-2.623 0-4.766 2.144-4.766 4.767v234.763c0 2.621 2.146 4.751 4.766 4.751h196.48c2.62 0 4.766-2.13 4.766-4.751v-234.763c0-2.623-2.143-4.767-4.766-4.767h-41.116v8.422c0 4.418-3.582 8-8 8h-98.248c-4.418 0-8-3.582-8-8zm-37.558-35.146c13.334 3.622 25.942 9.006 37.558 15.885v-5.495c0-1.321.32-2.567.887-3.665-8.615-4.775-16.15-11.261-22.148-19-4.882 4.739-10.356 8.872-16.297 12.275zm-159.514 48.362-72.266 30.953v63.985c0 42.721 30.607 79.839 72.267 88.275 41.683-8.436 72.291-45.554 72.291-88.275v-63.984zm-53.059 104.066-.017-.017c-7.755-7.727-7.752-20.26.009-27.983 7.715-7.705 20.191-7.719 27.948-.008.006.006.012.011.017.017 0 0 12.342 12.342 12.342 12.342l37.889-38.253.01-.01c7.682-7.729 20.189-7.772 27.918-.09 7.771 7.724 7.767 20.223.101 27.936-22.496 22.719-29.271 29.8-51.905 52.406-7.729 7.757-20.268 7.75-27.973-.001zm11.297-11.331 26.356 26.356c.005.006.011.011.017.017 1.466 1.475 3.846 1.475 5.312 0 .007-.007.014-.014.021-.02 22.609-22.581 29.375-29.654 51.844-52.346l.011-.011c1.461-1.47 1.457-3.849-.021-5.319-1.465-1.455-3.834-1.443-5.29.02l-43.537 43.955c-1.498 1.512-3.536 2.365-5.665 2.37-2.128.005-4.171-.838-5.676-2.343 0 0-18.012-18.012-18.019-18.019-1.49-1.469-3.877-1.483-5.353-.006-.006.005-.011.011-.017.017-1.475 1.466-1.475 3.846 0 5.312.006.006.011.012.017.017zm298.763-43.466c-4.415 0-8-3.585-8-8 0-4.416 3.585-8 8-8h52.499c4.415 0 8 3.584 8 8 0 4.415-3.585 8-8 8zm0 144.907c-4.415 0-8-3.585-8-8s3.585-8 8-8h26.25c4.415 0 8 3.585 8 8s-3.585 8-8 8zm-60.256-44.477h22.265c8.462 0 15.351 6.907 15.351 15.335v22.264c0 8.457-6.894 15.351-15.351 15.351h-22.265c-8.427 0-15.335-6.889-15.335-15.351v-22.264c0-8.433 6.903-15.335 15.335-15.335zm.665 16v20.95h20.951v-20.95zm59.591-60.321c-4.415 0-8-3.585-8-8 0-4.416 3.585-8 8-8h52.499c4.415 0 8 3.584 8 8 0 4.415-3.585 8-8 8zm-60.256-18.131h22.265c8.457 0 15.351 6.894 15.351 15.351v22.265c0 8.427-6.889 15.335-15.351 15.335h-22.265c-8.432 0-15.335-6.903-15.335-15.335v-22.265c0-8.461 6.908-15.351 15.335-15.351zm.665 16v20.951h20.951v-20.951zm-.665-78.452h22.265c8.457 0 15.351 6.895 15.351 15.351v22.265c0 8.423-6.894 15.351-15.351 15.351h-22.265c-8.427 0-15.335-6.923-15.335-15.351v-22.265c0-8.461 6.908-15.351 15.335-15.351zm.665 16v20.967h20.951v-20.967zm59.591 84.587c-4.415 0-8-3.585-8-8 0-4.416 3.585-8 8-8h26.25c4.415 0 8 3.584 8 8 0 4.415-3.585 8-8 8zm0 48.79c-4.415 0-8-3.585-8-8s3.585-8 8-8h52.499c4.415 0 8 3.585 8 8s-3.585 8-8 8zm0-104.899c-4.415 0-8-3.585-8-8 0-4.416 3.585-8 8-8h26.25c4.415 0 8 3.584 8 8 0 4.415-3.585 8-8 8zm-43.929-99.245v17.178h82.248v-17.178h-20.038c-3.697 0-6.912-2.532-7.778-6.125-1.447-6.005-6.86-10.464-13.316-10.464-6.444 0-11.854 4.461-13.3 10.464-.866 3.593-4.081 6.125-7.778 6.125zm41.116-1.072c-3.155 0-5.725-2.569-5.725-5.724 0-3.172 2.57-5.741 5.725-5.741 3.171 0 5.741 2.569 5.741 5.741 0 3.155-2.57 5.724-5.741 5.724z"/></g></g></svg>