<svg height="512" viewBox="0 0 256 256" width="512" xmlns="http://www.w3.org/2000/svg"><g id="Layer_3"><g><path d="m153.89 183.78-4.99 4.99-60.25 60.24h-81.66v-81.66l51.7-51.7 7.64-7.64c-.47 2.16-.71 4.41-.71 6.71h19.02c-8.08 8.91-10.8 22.02-5.89 33.87l17.57-7.27c-4.06 11.32-1.56 24.47 7.52 33.55l13.44-13.45c.59 12.02 7.94 23.21 19.79 28.12l7.28-17.57c2.2 4.66 5.49 8.7 9.54 11.81z" fill="#72c2e9"/><path d="m153.89 183.78-4.99 4.99c-1-.81-1.96-1.67-2.87-2.57l-2.49 6.02c-1.48 3.57-5.58 5.26-9.15 3.79-9.56-3.96-17.02-11.56-20.99-20.81l-4.61 4.62c-2.72 2.73-7.16 2.74-9.9 0-7.32-7.32-11.31-17.2-11.43-27.26-6.41 2.65-6.92 3.03-8.71 3.03-2.74 0-5.35-1.63-6.47-4.32-3.96-9.56-3.86-20.21-.13-29.55h-6.53c-3.55 0-6.48-2.64-6.93-6.07l7.64-7.64c-.47 2.16-.71 4.41-.71 6.71h19.02c-8.08 8.91-10.8 22.02-5.89 33.87l17.57-7.27c-4.06 11.32-1.56 24.47 7.52 33.55l13.44-13.45c.59 12.02 7.94 23.21 19.79 28.12l7.28-17.57c2.2 4.66 5.49 8.7 9.54 11.81z" fill="#4ba5c8"/><path d="m230.63 111.65 17.57 7.28c-4.91 11.85-16.1 19.2-28.11 19.79l13.44 13.44c-9.07 9.08-22.22 11.58-33.55 7.52l7.28 17.57c-11.85 4.91-24.96 2.19-33.87-5.89v19.02c-7.34 0-14.1-2.46-19.5-6.6-4.05-3.11-7.34-7.15-9.54-11.81l-7.28 17.57c-11.85-4.91-19.2-16.1-19.79-28.12l-13.44 13.45c-9.08-9.08-11.58-22.23-7.52-33.55l-17.57 7.27c-4.91-11.85-2.19-24.96 5.89-33.87h-19.02c0-2.3.24-4.55.71-6.71 2.1-9.9 8.77-18.11 17.7-22.33l-17.57-7.28c4.91-11.85 16.1-19.2 28.12-19.78l-13.45-13.45c9.08-9.07 22.23-11.57 33.55-7.52l-7.27-17.57c11.85-4.91 24.96-2.19 33.87 5.89v-19.01c12.83 0 23.9 7.53 29.04 18.41l7.28-17.57c11.85 4.91 19.2 16.1 19.78 28.11l13.45-13.44c9.07 9.07 11.57 22.22 7.52 33.55l17.57-7.28c4.91 11.85 2.19 24.96-5.89 33.87h19.01c0 12.83-7.53 23.9-18.41 29.04z" fill="#efefef"/><circle cx="157.333" cy="98.667" fill="#afafaf" r="61.876"/><circle cx="157.333" cy="98.667" fill="#f0c020" r="55.688"/><path d="m122.651 103.992c-2.932 0-5.315-2.383-5.315-5.325 0-2.941 2.383-5.325 5.315-5.325 2.941 0 5.325 2.383 5.325 5.325 0 2.941-2.384 5.325-5.325 5.325zm69.365 0c-2.941 0-5.325-2.383-5.325-5.325 0-2.941 2.383-5.325 5.325-5.325 2.932 0 5.315 2.383 5.315 5.325 0 2.941-2.383 5.325-5.315 5.325z" fill="#afafaf"/><circle cx="157.333" cy="98.667" fill="#f0c020" r="20.036"/><circle cx="157.333" cy="98.667" fill="#fc5d3d" r="20.036"/><circle cx="157.333" cy="98.667" fill="#afafaf" r="7.955"/><g><g><path d="m185.146 218.674c-3.729-1.228-6.641-2.022-8.591-10.421-.635-2.737-4.548-2.73-5.181 0-1.907 8.213-4.566 9.092-8.591 10.422-2.424.801-2.43 4.248 0 5.051 6.686 2.209 7.444 5.476 8.591 10.421.637 2.743 4.545 2.742 5.182 0 1.905-8.212 4.709-9.139 8.591-10.421 2.423-.802 2.428-4.249-.001-5.052z"/><path d="m177.956 221.224c-1.48 1.03-2.8 2.42-3.94 4.44-.94-1.59-2.25-3.09-4.16-4.4 1.55-1.07 2.93-2.51 4.12-4.64 1.2 2.16 2.56 3.59 3.98 4.6z" fill="#f0c020"/></g><g><path d="m45.979 79.507c-3.729-1.228-6.641-2.022-8.591-10.421-.635-2.737-4.548-2.73-5.181 0-1.907 8.213-4.566 9.092-8.591 10.422-2.424.801-2.43 4.248 0 5.051 6.686 2.209 7.444 5.476 8.591 10.421.637 2.743 4.545 2.742 5.182 0 1.905-8.212 4.709-9.139 8.591-10.421 2.423-.802 2.429-4.249-.001-5.052z"/><path d="m38.789 82.057c-1.48 1.03-2.8 2.42-3.94 4.44-.94-1.59-2.25-3.09-4.16-4.4 1.55-1.07 2.93-2.51 4.12-4.64 1.2 2.16 2.56 3.59 3.98 4.6z" fill="#f0c020"/></g></g></g></g><g id="Layer_4"><g><path d="m16.99 173.992c-.64 0-1.28-.244-1.768-.732-.977-.976-.977-2.559 0-3.535l2.121-2.121c.976-.977 2.56-.977 3.535 0 .977.976.977 2.559 0 3.535l-2.121 2.121c-.487.488-1.127.732-1.767.732zm9.193-9.192c-.64 0-1.28-.244-1.768-.732-.977-.976-.977-2.559 0-3.535l35.475-35.476c.976-.977 2.56-.977 3.535 0 .977.976.977 2.559 0 3.535l-35.475 35.475c-.488.489-1.128.733-1.767.733z" fill="#c5e5fe"/></g><g><path d="m157.333 147.993c-13.196 0-25.588-5.125-34.895-14.432-.977-.976-.977-2.559 0-3.535.976-.977 2.56-.977 3.535 0 8.362 8.362 19.5 12.967 31.359 12.967s22.997-4.605 31.359-12.967 12.967-19.5 12.967-31.359c0-7.558-1.927-15.017-5.572-21.571-.671-1.207-.236-2.729.97-3.4 1.207-.672 2.729-.236 3.4.97 4.057 7.296 6.201 15.595 6.202 24.001 0 13.195-5.125 25.588-14.432 34.895-9.304 9.306-21.697 14.431-34.893 14.431zm35.183-77.765c-.693 0-1.383-.287-1.877-.848-.624-.708-1.279-1.406-1.946-2.073-.977-.976-.977-2.559 0-3.535.976-.977 2.56-.977 3.535 0 .741.741 1.469 1.516 2.163 2.304.913 1.036.813 2.616-.224 3.528-.475.418-1.064.624-1.651.624z" fill="#f8e5b0"/></g></g><g id="Layer_2"><path d="m159.86 45.53c1.34 0 2.44-1.04 2.5-2.38.059-1.319-.958-2.547-2.38-2.61 0 0 0 0-.01 0-1.4-.08-2.55 1.01-2.61 2.38-.06 1.38 1.01 2.55 2.39 2.61z"/><path d="m149.57 40.99c-.01 0-.01 0-.02 0-28.702 3.854-50.4 28.435-50.4 57.68 0 32.176 26.057 58.18 58.18 58.18 32.153 0 58.19-26.036 58.19-58.18 0-27.72-19.337-50.819-45.21-56.74-1.34-.3-2.69.56-3 1.88-.3 1.35.54 2.69 1.89 3 24.33 5.54 41.33 26.87 41.32 51.86 0 29.393-23.784 53.18-53.19 53.18-29.103 0-53.169-23.494-53.19-53.18 0-26.55 19.81-49.21 46.08-52.72 1.36-.18 2.32-1.44 2.14-2.81-.18-1.34-1.44-2.31-2.79-2.15z"/><path d="m134.797 98.667c0 12.426 10.11 22.536 22.536 22.536s22.536-10.11 22.536-22.536-10.109-22.536-22.536-22.536-22.536 10.109-22.536 22.536zm40.072 0c0 9.669-7.866 17.536-17.536 17.536s-17.536-7.867-17.536-17.536 7.867-17.536 17.536-17.536 17.536 7.866 17.536 17.536z"/><path d="m146.878 98.667c0 5.765 4.69 10.456 10.456 10.456s10.455-4.69 10.455-10.456-4.69-10.455-10.455-10.455-10.456 4.689-10.456 10.455zm15.911 0c0 3.008-2.447 5.456-5.455 5.456s-5.456-2.447-5.456-5.456c0-3.008 2.447-5.455 5.456-5.455 3.007-.001 5.455 2.447 5.455 5.455z"/><path d="m95.68 39.41c1.27-.356 2.111-1.696 1.72-3.09-.37-1.29-1.78-2.09-3.09-1.72-1.297.365-2.101 1.738-1.72 3.09.375 1.295 1.735 2.09 3.09 1.72z"/><path d="m64.068 106.737-58.845 58.846c-.977.976-.977 2.559 0 3.535.976.977 2.56.977 3.535 0l54.365-54.365c.019 1.392 1.154 2.467 2.497 2.467h13.93c-6.298 9.532-7.559 21.575-3.11 32.33.51 1.24 2.01 1.87 3.27 1.35l12.86-5.32c-2.122 10.968 1.061 22.62 9.5 31.06.94.94 2.6.94 3.54 0l9.84-9.85c2.31 11.29 10.03 20.65 20.66 25.06 1.295.522 2.751-.083 3.27-1.35l5.33-12.87c1.57 2.325 3.403 4.437 5.477 6.312l-33.427 33.418c-1.01 1.032-.938 2.601 0 3.54 1.032 1.01 2.601.938 3.54 0l33.866-33.857c5.686 3.823 12.285 5.837 19.214 5.837h.01c1.392 0 2.5-1.119 2.5-2.5v-13.92c9.61 6.322 21.641 7.522 32.33 3.1 1.304-.557 1.876-2.016 1.35-3.27l-5.33-12.86c10.97 2.123 22.632-1.072 31.06-9.5.97-.98.97-2.57 0-3.54l-9.84-9.84c11.28-2.31 20.64-10.03 25.05-20.66.533-1.301-.103-2.759-1.35-3.27l-12.87-5.33c9.55-6.45 15.25-17.17 15.25-28.68 0-1.369-1.114-2.5-2.5-2.5h-13.92c6.297-9.528 7.56-21.575 3.11-32.33-.52-1.24-2.02-1.87-3.27-1.35l-12.86 5.33c2.141-11.052-1.141-22.701-9.5-31.06-.95-.94-2.59-.94-3.54 0l-9.84 9.84c-2.31-11.28-10.03-20.64-20.66-25.05-1.25-.52-2.76.11-3.27 1.35l-5.33 12.87c-6.45-9.55-17.17-15.25-28.68-15.25-1.366 0-2.5 1.111-2.5 2.5v13.91c-9.596-6.313-21.619-7.531-32.33-3.1-1.27.53-1.88 1.99-1.35 3.27l5.32 12.86c-1.79-.34-3.63-.55-5.46-.61-1.37-.05-2.53 1.03-2.58 2.42-.04 1.318.986 2.537 2.42 2.58 3.09.1 6.13.67 9.04 1.71 1.979.718 3.992-1.271 3.15-3.31l-6.28-15.16c9.831-3.143 20.881-.972 28.89 6.29 1.577 1.445 4.18.335 4.18-1.85v-16.41c10.47.88 19.77 7.34 24.28 16.88.915 1.94 3.734 1.892 4.57-.11l6.28-15.17c9.34 4.82 15.46 14.34 15.97 24.87.111 2.201 2.774 3.146 4.27 1.65l11.61-11.6c6.713 7.937 8.828 19.054 5.24 29.1-.738 2.018 1.293 3.969 3.31 3.15l15.16-6.28c3.125 9.741 1.011 20.829-6.29 28.88-1.47 1.627-.295 4.18 1.85 4.18h16.41c-.88 10.47-7.34 19.77-16.88 24.28-1.932.912-1.911 3.727.11 4.57l15.17 6.28c-4.82 9.34-14.34 15.46-24.87 15.98-2.17.11-3.174 2.746-1.65 4.27l11.6 11.6c-7.987 6.754-19.094 8.813-29.1 5.24-1.997-.724-3.988 1.281-3.15 3.31l6.28 15.16c-9.949 3.191-20.986.867-28.88-6.29-1.571-1.44-4.18-.348-4.18 1.85v16.42c-5.63-.47-10.98-2.54-15.48-5.98-3.75-2.89-6.8-6.65-8.8-10.9-.92-1.951-3.737-1.885-4.57.11l-6.28 15.17c-9.34-4.82-15.46-14.35-15.98-24.88-.111-2.198-2.772-3.148-4.27-1.65l-11.6 11.61c-6.591-7.809-8.91-18.844-5.24-29.09.74-2.048-1.318-3.979-3.31-3.16l-15.16 6.27c-3.192-9.957-.866-20.989 6.29-28.88 1.46-1.615.316-4.18-1.85-4.18h-16.42c.959-10.91 7.705-19.946 16.88-24.28 1.931-.911 1.911-3.726-.11-4.57l-15.17-6.28c4.82-9.34 14.35-15.46 24.88-15.97 2.171-.109 3.174-2.746 1.65-4.27l-11.61-11.61c.83-.7 1.71-1.36 2.61-1.97 1.15-.77 1.46-2.32.69-3.47-.74-1.1-2.36-1.43-3.47-.68-1.86 1.25-3.61 2.69-5.21 4.28-.929.928-1.018 2.501 0 3.54l9.85 9.84c-11.29 2.31-20.65 10.03-25.06 20.66-.53 1.28.08 2.74 1.35 3.27l12.87 5.33c-6.98 4.723-12.251 11.958-14.302 20.697z"/><path d="m86.88 250.78c.928.929 2.501 1.018 3.54 0l15.74-15.74c.97-.97.97-2.56 0-3.53-.95-.95-2.59-.95-3.54-.01l-15.74 15.74c-.97.98-.97 2.56 0 3.54z"/><path d="m113.23 227.97c.978-.978.97-2.56 0-3.53-.94-.95-2.59-.95-3.54 0-.967.966-.979 2.552 0 3.53 1.023 1.002 2.594.946 3.54 0z"/><path d="m57.311 172.064c-.976-.977-2.56-.977-3.535 0-.977.976-.977 2.559 0 3.535 20.005 20.005 26.669 26.842 29.216 29.158 1.001.911 2.348 1.966 3.895.418.977-.976.977-2.559 0-3.535z"/><path d="m42.858 182.982c-.977.976-.977 2.559 0 3.535 21.422 21.422 27.547 27.745 29.698 29.585 1.236 1.057 2.538.866 3.412-.009.977-.976.977-2.559 0-3.535l-29.575-29.575c-.976-.978-2.56-.978-3.535-.001z"/><path d="m31.94 193.899c-.977.976-.977 2.559 0 3.535 21.434 21.434 27.553 27.752 29.702 29.588 1.235 1.055 2.538.859 3.409-.012.977-.976.977-2.559 0-3.535l-29.575-29.575c-.976-.977-2.56-.977-3.536-.001z"/><path d="m114.84 98.67c0 4.31 3.5 7.82 7.81 7.82 4.32 0 7.82-3.51 7.82-7.82 0-4.32-3.5-7.83-7.82-7.83-4.31.01-7.81 3.52-7.81 7.83zm10.64 0c-.01 1.55-1.27 2.82-2.83 2.82-1.55 0-2.81-1.27-2.82-2.82.01-1.56 1.27-2.83 2.82-2.83 1.56 0 2.82 1.27 2.83 2.83z"/><path d="m199.83 98.67c0-4.32-3.51-7.83-7.81-7.83-4.32 0-7.83 3.51-7.83 7.83 0 4.31 3.51 7.82 7.83 7.82 4.3 0 7.81-3.51 7.81-7.82zm-10.64 0c0-1.56 1.27-2.83 2.83-2.83 1.55 0 2.81 1.27 2.81 2.83 0 1.55-1.26 2.82-2.81 2.82-1.56 0-2.83-1.27-2.83-2.82z"/></g></svg>